<mxfile host="app.diagrams.net" agent="Mozilla/5.0 (Windows NT 10.0; Win64; x64) AppleWebKit/537.36 (KHTML, like Gecko) Chrome/136.0.0.0 Safari/537.36" version="27.0.9">
  <diagram id="R2lEEEUBdFMjLlhIrx00" name="Page-1">
    <mxGraphModel dx="1544" dy="1374" grid="1" gridSize="10" guides="1" tooltips="1" connect="1" arrows="1" fold="1" page="1" pageScale="1" pageWidth="850" pageHeight="1100" math="0" shadow="0" extFonts="Permanent Marker^https://fonts.googleapis.com/css?family=Permanent+Marker">
      <root>
        <mxCell id="0" />
        <mxCell id="1" parent="0" />
        <mxCell id="C-vyLk0tnHw3VtMMgP7b-1" value="" style="edgeStyle=entityRelationEdgeStyle;endArrow=ERzeroToMany;startArrow=ERone;endFill=1;startFill=0;entryX=0;entryY=0.5;entryDx=0;entryDy=0;" parent="1" source="C-vyLk0tnHw3VtMMgP7b-24" target="C-vyLk0tnHw3VtMMgP7b-3" edge="1">
          <mxGeometry width="100" height="100" relative="1" as="geometry">
            <mxPoint x="270" y="330" as="sourcePoint" />
            <mxPoint x="380" y="-195" as="targetPoint" />
          </mxGeometry>
        </mxCell>
        <mxCell id="C-vyLk0tnHw3VtMMgP7b-2" value="sheet_lab" style="shape=table;startSize=30;container=1;collapsible=1;childLayout=tableLayout;fixedRows=1;rowLines=0;fontStyle=1;align=center;resizeLast=1;" parent="1" vertex="1">
          <mxGeometry x="390" y="-240" width="250" height="130" as="geometry" />
        </mxCell>
        <mxCell id="C-vyLk0tnHw3VtMMgP7b-3" value="" style="shape=partialRectangle;collapsible=0;dropTarget=0;pointerEvents=0;fillColor=none;points=[[0,0.5],[1,0.5]];portConstraint=eastwest;top=0;left=0;right=0;bottom=1;" parent="C-vyLk0tnHw3VtMMgP7b-2" vertex="1">
          <mxGeometry y="30" width="250" height="30" as="geometry" />
        </mxCell>
        <mxCell id="C-vyLk0tnHw3VtMMgP7b-4" value="PK" style="shape=partialRectangle;overflow=hidden;connectable=0;fillColor=none;top=0;left=0;bottom=0;right=0;fontStyle=1;" parent="C-vyLk0tnHw3VtMMgP7b-3" vertex="1">
          <mxGeometry width="30" height="30" as="geometry">
            <mxRectangle width="30" height="30" as="alternateBounds" />
          </mxGeometry>
        </mxCell>
        <mxCell id="C-vyLk0tnHw3VtMMgP7b-5" value="order_id int NOT NULL " style="shape=partialRectangle;overflow=hidden;connectable=0;fillColor=none;top=0;left=0;bottom=0;right=0;align=left;spacingLeft=6;fontStyle=5;" parent="C-vyLk0tnHw3VtMMgP7b-3" vertex="1">
          <mxGeometry x="30" width="220" height="30" as="geometry">
            <mxRectangle width="220" height="30" as="alternateBounds" />
          </mxGeometry>
        </mxCell>
        <mxCell id="C-vyLk0tnHw3VtMMgP7b-6" value="" style="shape=partialRectangle;collapsible=0;dropTarget=0;pointerEvents=0;fillColor=none;points=[[0,0.5],[1,0.5]];portConstraint=eastwest;top=0;left=0;right=0;bottom=0;" parent="C-vyLk0tnHw3VtMMgP7b-2" vertex="1">
          <mxGeometry y="60" width="250" height="30" as="geometry" />
        </mxCell>
        <mxCell id="C-vyLk0tnHw3VtMMgP7b-7" value="FK1" style="shape=partialRectangle;overflow=hidden;connectable=0;fillColor=none;top=0;left=0;bottom=0;right=0;" parent="C-vyLk0tnHw3VtMMgP7b-6" vertex="1">
          <mxGeometry width="30" height="30" as="geometry">
            <mxRectangle width="30" height="30" as="alternateBounds" />
          </mxGeometry>
        </mxCell>
        <mxCell id="C-vyLk0tnHw3VtMMgP7b-8" value="customer_id int NOT NULL" style="shape=partialRectangle;overflow=hidden;connectable=0;fillColor=none;top=0;left=0;bottom=0;right=0;align=left;spacingLeft=6;" parent="C-vyLk0tnHw3VtMMgP7b-6" vertex="1">
          <mxGeometry x="30" width="220" height="30" as="geometry">
            <mxRectangle width="220" height="30" as="alternateBounds" />
          </mxGeometry>
        </mxCell>
        <mxCell id="C-vyLk0tnHw3VtMMgP7b-9" value="" style="shape=partialRectangle;collapsible=0;dropTarget=0;pointerEvents=0;fillColor=none;points=[[0,0.5],[1,0.5]];portConstraint=eastwest;top=0;left=0;right=0;bottom=0;" parent="C-vyLk0tnHw3VtMMgP7b-2" vertex="1">
          <mxGeometry y="90" width="250" height="30" as="geometry" />
        </mxCell>
        <mxCell id="C-vyLk0tnHw3VtMMgP7b-10" value="" style="shape=partialRectangle;overflow=hidden;connectable=0;fillColor=none;top=0;left=0;bottom=0;right=0;" parent="C-vyLk0tnHw3VtMMgP7b-9" vertex="1">
          <mxGeometry width="30" height="30" as="geometry">
            <mxRectangle width="30" height="30" as="alternateBounds" />
          </mxGeometry>
        </mxCell>
        <mxCell id="C-vyLk0tnHw3VtMMgP7b-11" value="order_date date NOT NULL" style="shape=partialRectangle;overflow=hidden;connectable=0;fillColor=none;top=0;left=0;bottom=0;right=0;align=left;spacingLeft=6;" parent="C-vyLk0tnHw3VtMMgP7b-9" vertex="1">
          <mxGeometry x="30" width="220" height="30" as="geometry">
            <mxRectangle width="220" height="30" as="alternateBounds" />
          </mxGeometry>
        </mxCell>
        <mxCell id="C-vyLk0tnHw3VtMMgP7b-13" value="species" style="shape=table;startSize=30;container=1;collapsible=1;childLayout=tableLayout;fixedRows=1;rowLines=0;fontStyle=1;align=center;resizeLast=1;" parent="1" vertex="1">
          <mxGeometry x="1150" y="-240" width="250" height="130" as="geometry" />
        </mxCell>
        <mxCell id="C-vyLk0tnHw3VtMMgP7b-14" value="" style="shape=partialRectangle;collapsible=0;dropTarget=0;pointerEvents=0;fillColor=none;points=[[0,0.5],[1,0.5]];portConstraint=eastwest;top=0;left=0;right=0;bottom=1;" parent="C-vyLk0tnHw3VtMMgP7b-13" vertex="1">
          <mxGeometry y="30" width="250" height="30" as="geometry" />
        </mxCell>
        <mxCell id="C-vyLk0tnHw3VtMMgP7b-15" value="PK" style="shape=partialRectangle;overflow=hidden;connectable=0;fillColor=none;top=0;left=0;bottom=0;right=0;fontStyle=1;" parent="C-vyLk0tnHw3VtMMgP7b-14" vertex="1">
          <mxGeometry width="30" height="30" as="geometry">
            <mxRectangle width="30" height="30" as="alternateBounds" />
          </mxGeometry>
        </mxCell>
        <mxCell id="C-vyLk0tnHw3VtMMgP7b-16" value="shipment_id int NOT NULL " style="shape=partialRectangle;overflow=hidden;connectable=0;fillColor=none;top=0;left=0;bottom=0;right=0;align=left;spacingLeft=6;fontStyle=5;" parent="C-vyLk0tnHw3VtMMgP7b-14" vertex="1">
          <mxGeometry x="30" width="220" height="30" as="geometry">
            <mxRectangle width="220" height="30" as="alternateBounds" />
          </mxGeometry>
        </mxCell>
        <mxCell id="C-vyLk0tnHw3VtMMgP7b-17" value="" style="shape=partialRectangle;collapsible=0;dropTarget=0;pointerEvents=0;fillColor=none;points=[[0,0.5],[1,0.5]];portConstraint=eastwest;top=0;left=0;right=0;bottom=0;" parent="C-vyLk0tnHw3VtMMgP7b-13" vertex="1">
          <mxGeometry y="60" width="250" height="30" as="geometry" />
        </mxCell>
        <mxCell id="C-vyLk0tnHw3VtMMgP7b-18" value="FK1" style="shape=partialRectangle;overflow=hidden;connectable=0;fillColor=none;top=0;left=0;bottom=0;right=0;" parent="C-vyLk0tnHw3VtMMgP7b-17" vertex="1">
          <mxGeometry width="30" height="30" as="geometry">
            <mxRectangle width="30" height="30" as="alternateBounds" />
          </mxGeometry>
        </mxCell>
        <mxCell id="C-vyLk0tnHw3VtMMgP7b-19" value="order_id int NOT NULL" style="shape=partialRectangle;overflow=hidden;connectable=0;fillColor=none;top=0;left=0;bottom=0;right=0;align=left;spacingLeft=6;" parent="C-vyLk0tnHw3VtMMgP7b-17" vertex="1">
          <mxGeometry x="30" width="220" height="30" as="geometry">
            <mxRectangle width="220" height="30" as="alternateBounds" />
          </mxGeometry>
        </mxCell>
        <mxCell id="C-vyLk0tnHw3VtMMgP7b-20" value="" style="shape=partialRectangle;collapsible=0;dropTarget=0;pointerEvents=0;fillColor=none;points=[[0,0.5],[1,0.5]];portConstraint=eastwest;top=0;left=0;right=0;bottom=0;" parent="C-vyLk0tnHw3VtMMgP7b-13" vertex="1">
          <mxGeometry y="90" width="250" height="30" as="geometry" />
        </mxCell>
        <mxCell id="C-vyLk0tnHw3VtMMgP7b-21" value="" style="shape=partialRectangle;overflow=hidden;connectable=0;fillColor=none;top=0;left=0;bottom=0;right=0;" parent="C-vyLk0tnHw3VtMMgP7b-20" vertex="1">
          <mxGeometry width="30" height="30" as="geometry">
            <mxRectangle width="30" height="30" as="alternateBounds" />
          </mxGeometry>
        </mxCell>
        <mxCell id="C-vyLk0tnHw3VtMMgP7b-22" value="shipment_date date NOT NULL" style="shape=partialRectangle;overflow=hidden;connectable=0;fillColor=none;top=0;left=0;bottom=0;right=0;align=left;spacingLeft=6;" parent="C-vyLk0tnHw3VtMMgP7b-20" vertex="1">
          <mxGeometry x="30" width="220" height="30" as="geometry">
            <mxRectangle width="220" height="30" as="alternateBounds" />
          </mxGeometry>
        </mxCell>
        <mxCell id="C-vyLk0tnHw3VtMMgP7b-23" value="Sample" style="shape=table;startSize=30;container=1;collapsible=1;childLayout=tableLayout;fixedRows=1;rowLines=0;fontStyle=1;align=center;resizeLast=1;" parent="1" vertex="1">
          <mxGeometry x="-35" y="-130" width="250" height="100" as="geometry" />
        </mxCell>
        <mxCell id="C-vyLk0tnHw3VtMMgP7b-24" value="" style="shape=partialRectangle;collapsible=0;dropTarget=0;pointerEvents=0;fillColor=none;points=[[0,0.5],[1,0.5]];portConstraint=eastwest;top=0;left=0;right=0;bottom=1;" parent="C-vyLk0tnHw3VtMMgP7b-23" vertex="1">
          <mxGeometry y="30" width="250" height="30" as="geometry" />
        </mxCell>
        <mxCell id="C-vyLk0tnHw3VtMMgP7b-25" value="PK" style="shape=partialRectangle;overflow=hidden;connectable=0;fillColor=none;top=0;left=0;bottom=0;right=0;fontStyle=1;" parent="C-vyLk0tnHw3VtMMgP7b-24" vertex="1">
          <mxGeometry width="30" height="30" as="geometry">
            <mxRectangle width="30" height="30" as="alternateBounds" />
          </mxGeometry>
        </mxCell>
        <mxCell id="C-vyLk0tnHw3VtMMgP7b-26" value="customer_id int NOT NULL " style="shape=partialRectangle;overflow=hidden;connectable=0;fillColor=none;top=0;left=0;bottom=0;right=0;align=left;spacingLeft=6;fontStyle=5;" parent="C-vyLk0tnHw3VtMMgP7b-24" vertex="1">
          <mxGeometry x="30" width="220" height="30" as="geometry">
            <mxRectangle width="220" height="30" as="alternateBounds" />
          </mxGeometry>
        </mxCell>
        <mxCell id="C-vyLk0tnHw3VtMMgP7b-27" value="" style="shape=partialRectangle;collapsible=0;dropTarget=0;pointerEvents=0;fillColor=none;points=[[0,0.5],[1,0.5]];portConstraint=eastwest;top=0;left=0;right=0;bottom=0;" parent="C-vyLk0tnHw3VtMMgP7b-23" vertex="1">
          <mxGeometry y="60" width="250" height="30" as="geometry" />
        </mxCell>
        <mxCell id="C-vyLk0tnHw3VtMMgP7b-28" value="" style="shape=partialRectangle;overflow=hidden;connectable=0;fillColor=none;top=0;left=0;bottom=0;right=0;" parent="C-vyLk0tnHw3VtMMgP7b-27" vertex="1">
          <mxGeometry width="30" height="30" as="geometry">
            <mxRectangle width="30" height="30" as="alternateBounds" />
          </mxGeometry>
        </mxCell>
        <mxCell id="C-vyLk0tnHw3VtMMgP7b-29" value="customer_name char(50) NOT NULL" style="shape=partialRectangle;overflow=hidden;connectable=0;fillColor=none;top=0;left=0;bottom=0;right=0;align=left;spacingLeft=6;" parent="C-vyLk0tnHw3VtMMgP7b-27" vertex="1">
          <mxGeometry x="30" width="220" height="30" as="geometry">
            <mxRectangle width="220" height="30" as="alternateBounds" />
          </mxGeometry>
        </mxCell>
        <mxCell id="2UJ9F-yyZZV8TtGCsO7B-1" value="especies" style="whiteSpace=wrap;html=1;align=center;" parent="1" vertex="1">
          <mxGeometry x="840" y="760" width="80" height="40" as="geometry" />
        </mxCell>
        <mxCell id="FHarEw_1w8gjIPrUUaQ0-25" value="" style="edgeStyle=orthogonalEdgeStyle;rounded=0;orthogonalLoop=1;jettySize=auto;html=1;entryX=0.5;entryY=1;entryDx=0;entryDy=0;startArrow=ERmany;startFill=0;endArrow=ERmany;endFill=0;exitX=1;exitY=0.5;exitDx=0;exitDy=0;" parent="1" edge="1" source="2UJ9F-yyZZV8TtGCsO7B-2">
          <mxGeometry relative="1" as="geometry">
            <mxPoint x="210" y="1060" as="sourcePoint" />
            <mxPoint x="540" y="1000" as="targetPoint" />
          </mxGeometry>
        </mxCell>
        <mxCell id="ieJBfIBitrrJD2SXiwdM-3" style="edgeStyle=orthogonalEdgeStyle;rounded=0;orthogonalLoop=1;jettySize=auto;html=1;entryX=0;entryY=0.5;entryDx=0;entryDy=0;startArrow=ERone;startFill=0;endArrow=ERone;endFill=0;" parent="1" source="2UJ9F-yyZZV8TtGCsO7B-2" target="ieJBfIBitrrJD2SXiwdM-2" edge="1">
          <mxGeometry relative="1" as="geometry">
            <Array as="points">
              <mxPoint x="120" y="1410" />
            </Array>
          </mxGeometry>
        </mxCell>
        <mxCell id="2UJ9F-yyZZV8TtGCsO7B-2" value="tambor" style="whiteSpace=wrap;html=1;align=center;" parent="1" vertex="1">
          <mxGeometry x="80" y="1040" width="80" height="40" as="geometry" />
        </mxCell>
        <mxCell id="ut1FgxLM1IVdskiY2yRH-5" style="edgeStyle=orthogonalEdgeStyle;rounded=0;orthogonalLoop=1;jettySize=auto;html=1;entryX=0;entryY=0.5;entryDx=0;entryDy=0;endArrow=ERone;endFill=0;startArrow=ERmany;startFill=0;" parent="1" source="2UJ9F-yyZZV8TtGCsO7B-3" target="ut1FgxLM1IVdskiY2yRH-4" edge="1">
          <mxGeometry relative="1" as="geometry">
            <Array as="points">
              <mxPoint x="580" y="1100" />
            </Array>
          </mxGeometry>
        </mxCell>
        <mxCell id="2UJ9F-yyZZV8TtGCsO7B-3" value="Muestra" style="whiteSpace=wrap;html=1;align=center;" parent="1" vertex="1">
          <mxGeometry x="520" y="960" width="80" height="40" as="geometry" />
        </mxCell>
        <mxCell id="FHarEw_1w8gjIPrUUaQ0-11" value="id_spec" style="ellipse;whiteSpace=wrap;html=1;align=center;fontStyle=4;" parent="1" vertex="1">
          <mxGeometry x="720" y="730" width="80" height="40" as="geometry" />
        </mxCell>
        <mxCell id="FHarEw_1w8gjIPrUUaQ0-12" value="col_name" style="ellipse;whiteSpace=wrap;html=1;align=center;" parent="1" vertex="1">
          <mxGeometry x="780" y="680" width="80" height="40" as="geometry" />
        </mxCell>
        <mxCell id="FHarEw_1w8gjIPrUUaQ0-13" value="familia" style="ellipse;whiteSpace=wrap;html=1;align=center;" parent="1" vertex="1">
          <mxGeometry x="870" y="680" width="80" height="40" as="geometry" />
        </mxCell>
        <mxCell id="FHarEw_1w8gjIPrUUaQ0-17" value="" style="endArrow=none;html=1;rounded=0;entryX=0;entryY=0.5;entryDx=0;entryDy=0;exitX=1;exitY=0.5;exitDx=0;exitDy=0;" parent="1" source="FHarEw_1w8gjIPrUUaQ0-11" target="2UJ9F-yyZZV8TtGCsO7B-1" edge="1">
          <mxGeometry relative="1" as="geometry">
            <mxPoint x="820" y="720" as="sourcePoint" />
            <mxPoint x="980" y="720" as="targetPoint" />
          </mxGeometry>
        </mxCell>
        <mxCell id="FHarEw_1w8gjIPrUUaQ0-18" value="" style="endArrow=none;html=1;rounded=0;entryX=0.25;entryY=0;entryDx=0;entryDy=0;exitX=0.5;exitY=1;exitDx=0;exitDy=0;" parent="1" source="FHarEw_1w8gjIPrUUaQ0-12" target="2UJ9F-yyZZV8TtGCsO7B-1" edge="1">
          <mxGeometry relative="1" as="geometry">
            <mxPoint x="820" y="760" as="sourcePoint" />
            <mxPoint x="860" y="790" as="targetPoint" />
          </mxGeometry>
        </mxCell>
        <mxCell id="FHarEw_1w8gjIPrUUaQ0-19" value="" style="endArrow=none;html=1;rounded=0;entryX=0.75;entryY=0;entryDx=0;entryDy=0;exitX=0.5;exitY=1;exitDx=0;exitDy=0;" parent="1" source="FHarEw_1w8gjIPrUUaQ0-13" target="2UJ9F-yyZZV8TtGCsO7B-1" edge="1">
          <mxGeometry relative="1" as="geometry">
            <mxPoint x="970" y="730" as="sourcePoint" />
            <mxPoint x="1010" y="760" as="targetPoint" />
          </mxGeometry>
        </mxCell>
        <mxCell id="FHarEw_1w8gjIPrUUaQ0-22" value="" style="endArrow=none;html=1;rounded=0;entryX=1;entryY=0;entryDx=0;entryDy=0;exitX=0;exitY=1;exitDx=0;exitDy=0;" parent="1" source="2UJ9F-yyZZV8TtGCsO7B-2" target="IORpXrqYH4g0OpjPxt7b-13" edge="1">
          <mxGeometry relative="1" as="geometry">
            <mxPoint x="250" y="900" as="sourcePoint" />
            <mxPoint x="-330.0000000000002" y="1060" as="targetPoint" />
          </mxGeometry>
        </mxCell>
        <mxCell id="IORpXrqYH4g0OpjPxt7b-28" style="edgeStyle=orthogonalEdgeStyle;rounded=0;orthogonalLoop=1;jettySize=auto;html=1;entryX=0.5;entryY=1;entryDx=0;entryDy=0;endArrow=none;startFill=0;" parent="1" source="FHarEw_1w8gjIPrUUaQ0-23" target="IORpXrqYH4g0OpjPxt7b-26" edge="1">
          <mxGeometry relative="1" as="geometry" />
        </mxCell>
        <mxCell id="FHarEw_1w8gjIPrUUaQ0-23" value="muestra_tamb" style="shape=rhombus;perimeter=rhombusPerimeter;whiteSpace=wrap;html=1;align=center;" parent="1" vertex="1">
          <mxGeometry x="380" y="1040" width="80" height="40" as="geometry" />
        </mxCell>
        <mxCell id="FHarEw_1w8gjIPrUUaQ0-30" value="date_extract" style="ellipse;whiteSpace=wrap;html=1;align=center;" parent="1" vertex="1">
          <mxGeometry x="570" y="790" width="80" height="40" as="geometry" />
        </mxCell>
        <mxCell id="FHarEw_1w8gjIPrUUaQ0-32" value="&lt;u&gt;id_muestra&lt;/u&gt;" style="ellipse;whiteSpace=wrap;html=1;align=center;" parent="1" vertex="1">
          <mxGeometry x="470" y="890" width="80" height="40" as="geometry" />
        </mxCell>
        <mxCell id="FHarEw_1w8gjIPrUUaQ0-40" value="observaciones" style="ellipse;whiteSpace=wrap;html=1;align=center;" parent="1" vertex="1">
          <mxGeometry x="570" y="890" width="80" height="40" as="geometry" />
        </mxCell>
        <mxCell id="FHarEw_1w8gjIPrUUaQ0-44" value="" style="endArrow=none;html=1;rounded=0;exitX=0.5;exitY=0;exitDx=0;exitDy=0;" parent="1" source="2UJ9F-yyZZV8TtGCsO7B-3" edge="1">
          <mxGeometry relative="1" as="geometry">
            <mxPoint x="650" y="940" as="sourcePoint" />
            <mxPoint x="560" y="810" as="targetPoint" />
          </mxGeometry>
        </mxCell>
        <mxCell id="FHarEw_1w8gjIPrUUaQ0-56" value="date_analisis" style="ellipse;whiteSpace=wrap;html=1;align=center;" parent="1" vertex="1">
          <mxGeometry x="570" y="840" width="80" height="40" as="geometry" />
        </mxCell>
        <mxCell id="FHarEw_1w8gjIPrUUaQ0-57" value="n_reg" style="ellipse;whiteSpace=wrap;html=1;align=center;" parent="1" vertex="1">
          <mxGeometry x="470" y="840" width="80" height="40" as="geometry" />
        </mxCell>
        <mxCell id="IORpXrqYH4g0OpjPxt7b-17" style="edgeStyle=orthogonalEdgeStyle;rounded=0;orthogonalLoop=1;jettySize=auto;html=1;entryX=0.5;entryY=0;entryDx=0;entryDy=0;startArrow=ERmany;startFill=0;endArrow=ERmany;endFill=0;" parent="1" source="FHarEw_1w8gjIPrUUaQ0-66" target="2UJ9F-yyZZV8TtGCsO7B-2" edge="1">
          <mxGeometry relative="1" as="geometry" />
        </mxCell>
        <mxCell id="FHarEw_1w8gjIPrUUaQ0-66" value="apiarios" style="whiteSpace=wrap;html=1;align=center;" parent="1" vertex="1">
          <mxGeometry x="80" y="740" width="80" height="40" as="geometry" />
        </mxCell>
        <mxCell id="FHarEw_1w8gjIPrUUaQ0-67" value="id_api" style="ellipse;whiteSpace=wrap;html=1;align=center;fontStyle=4;" parent="1" vertex="1">
          <mxGeometry x="20" y="820" width="80" height="40" as="geometry" />
        </mxCell>
        <mxCell id="FHarEw_1w8gjIPrUUaQ0-68" value="id_propietario" style="ellipse;whiteSpace=wrap;html=1;align=center;" parent="1" vertex="1">
          <mxGeometry x="60" y="670" width="80" height="40" as="geometry" />
        </mxCell>
        <mxCell id="FHarEw_1w8gjIPrUUaQ0-69" value="nomb_apiario" style="ellipse;whiteSpace=wrap;html=1;align=center;" parent="1" vertex="1">
          <mxGeometry x="155" y="680" width="80" height="40" as="geometry" />
        </mxCell>
        <mxCell id="FHarEw_1w8gjIPrUUaQ0-70" value="" style="endArrow=none;html=1;rounded=0;entryX=0.25;entryY=1;entryDx=0;entryDy=0;exitX=0.5;exitY=0;exitDx=0;exitDy=0;" parent="1" source="FHarEw_1w8gjIPrUUaQ0-67" target="FHarEw_1w8gjIPrUUaQ0-66" edge="1">
          <mxGeometry relative="1" as="geometry">
            <mxPoint x="60" y="700" as="sourcePoint" />
            <mxPoint x="220" y="700" as="targetPoint" />
          </mxGeometry>
        </mxCell>
        <mxCell id="FHarEw_1w8gjIPrUUaQ0-71" value="" style="endArrow=none;html=1;rounded=0;entryX=0.5;entryY=0;entryDx=0;entryDy=0;exitX=0.5;exitY=1;exitDx=0;exitDy=0;" parent="1" source="FHarEw_1w8gjIPrUUaQ0-68" target="FHarEw_1w8gjIPrUUaQ0-66" edge="1">
          <mxGeometry relative="1" as="geometry">
            <mxPoint x="60" y="740" as="sourcePoint" />
            <mxPoint x="100" y="770" as="targetPoint" />
          </mxGeometry>
        </mxCell>
        <mxCell id="FHarEw_1w8gjIPrUUaQ0-72" value="" style="endArrow=none;html=1;rounded=0;entryX=0.75;entryY=0;entryDx=0;entryDy=0;exitX=0;exitY=1;exitDx=0;exitDy=0;" parent="1" source="FHarEw_1w8gjIPrUUaQ0-69" target="FHarEw_1w8gjIPrUUaQ0-66" edge="1">
          <mxGeometry relative="1" as="geometry">
            <mxPoint x="210" y="710" as="sourcePoint" />
            <mxPoint x="250" y="740" as="targetPoint" />
          </mxGeometry>
        </mxCell>
        <mxCell id="FHarEw_1w8gjIPrUUaQ0-74" value="tambor_api" style="shape=rhombus;perimeter=rhombusPerimeter;whiteSpace=wrap;html=1;align=center;" parent="1" vertex="1">
          <mxGeometry x="80" y="920" width="80" height="40" as="geometry" />
        </mxCell>
        <mxCell id="FHarEw_1w8gjIPrUUaQ0-78" value="cant_colm" style="ellipse;whiteSpace=wrap;html=1;align=center;" parent="1" vertex="1">
          <mxGeometry x="205" y="730" width="80" height="40" as="geometry" />
        </mxCell>
        <mxCell id="FHarEw_1w8gjIPrUUaQ0-79" value="coord" style="ellipse;whiteSpace=wrap;html=1;align=center;" parent="1" vertex="1">
          <mxGeometry x="150" y="820" width="80" height="40" as="geometry" />
        </mxCell>
        <mxCell id="FHarEw_1w8gjIPrUUaQ0-80" value="" style="endArrow=none;html=1;rounded=0;entryX=1;entryY=0.25;entryDx=0;entryDy=0;exitX=0;exitY=0.5;exitDx=0;exitDy=0;" parent="1" source="FHarEw_1w8gjIPrUUaQ0-78" target="FHarEw_1w8gjIPrUUaQ0-66" edge="1">
          <mxGeometry relative="1" as="geometry">
            <mxPoint x="105" y="700" as="sourcePoint" />
            <mxPoint x="135" y="770" as="targetPoint" />
          </mxGeometry>
        </mxCell>
        <mxCell id="FHarEw_1w8gjIPrUUaQ0-81" value="" style="endArrow=none;html=1;rounded=0;entryX=0.75;entryY=1;entryDx=0;entryDy=0;exitX=0.5;exitY=0;exitDx=0;exitDy=0;" parent="1" source="FHarEw_1w8gjIPrUUaQ0-79" target="FHarEw_1w8gjIPrUUaQ0-66" edge="1">
          <mxGeometry relative="1" as="geometry">
            <mxPoint x="205" y="780" as="sourcePoint" />
            <mxPoint x="235" y="850" as="targetPoint" />
          </mxGeometry>
        </mxCell>
        <mxCell id="FHarEw_1w8gjIPrUUaQ0-89" value="" style="endArrow=none;html=1;rounded=0;exitX=0.25;exitY=0;exitDx=0;exitDy=0;entryX=1;entryY=1;entryDx=0;entryDy=0;" parent="1" source="ieJBfIBitrrJD2SXiwdM-2" target="ieJBfIBitrrJD2SXiwdM-12" edge="1">
          <mxGeometry relative="1" as="geometry">
            <mxPoint x="640" y="1240" as="sourcePoint" />
            <mxPoint x="520" y="1250" as="targetPoint" />
          </mxGeometry>
        </mxCell>
        <mxCell id="FHarEw_1w8gjIPrUUaQ0-91" value="id_spec" style="ellipse;whiteSpace=wrap;html=1;align=center;" parent="1" vertex="1">
          <mxGeometry x="930" y="860" width="80" height="40" as="geometry" />
        </mxCell>
        <mxCell id="FHarEw_1w8gjIPrUUaQ0-92" value="" style="endArrow=none;html=1;rounded=0;exitX=0.675;exitY=0.225;exitDx=0;exitDy=0;entryX=0;entryY=0.5;entryDx=0;entryDy=0;exitPerimeter=0;" parent="1" source="FHarEw_1w8gjIPrUUaQ0-98" target="FHarEw_1w8gjIPrUUaQ0-91" edge="1">
          <mxGeometry relative="1" as="geometry">
            <mxPoint x="900" y="870" as="sourcePoint" />
            <mxPoint x="1040" y="930" as="targetPoint" />
          </mxGeometry>
        </mxCell>
        <mxCell id="FHarEw_1w8gjIPrUUaQ0-102" style="edgeStyle=orthogonalEdgeStyle;rounded=0;orthogonalLoop=1;jettySize=auto;html=1;entryX=1;entryY=0.5;entryDx=0;entryDy=0;endArrow=ERmany;endFill=0;startArrow=ERmany;startFill=0;" parent="1" target="2UJ9F-yyZZV8TtGCsO7B-3" edge="1">
          <mxGeometry relative="1" as="geometry">
            <mxPoint x="880" y="800" as="sourcePoint" />
            <mxPoint x="880" y="960" as="targetPoint" />
            <Array as="points">
              <mxPoint x="880" y="980" />
            </Array>
          </mxGeometry>
        </mxCell>
        <mxCell id="FHarEw_1w8gjIPrUUaQ0-96" value="foot_print" style="whiteSpace=wrap;html=1;align=center;" parent="1" vertex="1">
          <mxGeometry x="1480" y="840" width="80" height="40" as="geometry" />
        </mxCell>
        <mxCell id="FHarEw_1w8gjIPrUUaQ0-97" value="&lt;u&gt;id_ana_pal&lt;/u&gt;" style="ellipse;whiteSpace=wrap;html=1;align=center;" parent="1" vertex="1">
          <mxGeometry x="1000" y="900" width="80" height="40" as="geometry" />
        </mxCell>
        <mxCell id="FHarEw_1w8gjIPrUUaQ0-98" value="analisis_palio" style="shape=rhombus;perimeter=rhombusPerimeter;whiteSpace=wrap;html=1;align=center;" parent="1" vertex="1">
          <mxGeometry x="840" y="900" width="80" height="40" as="geometry" />
        </mxCell>
        <mxCell id="FHarEw_1w8gjIPrUUaQ0-99" value="" style="endArrow=none;html=1;rounded=0;entryX=1;entryY=0.5;entryDx=0;entryDy=0;exitX=0;exitY=0.5;exitDx=0;exitDy=0;" parent="1" source="FHarEw_1w8gjIPrUUaQ0-97" target="FHarEw_1w8gjIPrUUaQ0-98" edge="1">
          <mxGeometry relative="1" as="geometry">
            <mxPoint x="950" y="850" as="sourcePoint" />
            <mxPoint x="920" y="910" as="targetPoint" />
          </mxGeometry>
        </mxCell>
        <mxCell id="FHarEw_1w8gjIPrUUaQ0-106" value="" style="endArrow=none;html=1;rounded=0;entryX=0;entryY=0;entryDx=0;entryDy=0;exitX=1;exitY=0.5;exitDx=0;exitDy=0;" parent="1" source="FHarEw_1w8gjIPrUUaQ0-107" target="FHarEw_1w8gjIPrUUaQ0-98" edge="1">
          <mxGeometry relative="1" as="geometry">
            <mxPoint x="800.0000000000002" y="880" as="sourcePoint" />
            <mxPoint x="840" y="880" as="targetPoint" />
          </mxGeometry>
        </mxCell>
        <mxCell id="FHarEw_1w8gjIPrUUaQ0-107" value="canti_granos" style="ellipse;whiteSpace=wrap;html=1;align=center;" parent="1" vertex="1">
          <mxGeometry x="750" y="870" width="80" height="40" as="geometry" />
        </mxCell>
        <mxCell id="ieJBfIBitrrJD2SXiwdM-1" value="tamb_sen" style="shape=rhombus;perimeter=rhombusPerimeter;whiteSpace=wrap;html=1;align=center;" parent="1" vertex="1">
          <mxGeometry x="230" y="1390" width="80" height="40" as="geometry" />
        </mxCell>
        <mxCell id="ieJBfIBitrrJD2SXiwdM-2" value="analisis_senso" style="whiteSpace=wrap;html=1;align=center;" parent="1" vertex="1">
          <mxGeometry x="400" y="1390" width="120" height="40" as="geometry" />
        </mxCell>
        <mxCell id="ieJBfIBitrrJD2SXiwdM-4" value="id_sens" style="ellipse;whiteSpace=wrap;html=1;align=center;fontStyle=4;" parent="1" vertex="1">
          <mxGeometry x="320" y="1440" width="80" height="40" as="geometry" />
        </mxCell>
        <mxCell id="ieJBfIBitrrJD2SXiwdM-5" value="id_tambor" style="ellipse;whiteSpace=wrap;html=1;align=center;" parent="1" vertex="1">
          <mxGeometry x="370" y="1480" width="80" height="40" as="geometry" />
        </mxCell>
        <mxCell id="ieJBfIBitrrJD2SXiwdM-6" value="" style="endArrow=none;html=1;rounded=0;exitX=0;exitY=1;exitDx=0;exitDy=0;entryX=1;entryY=0;entryDx=0;entryDy=0;" parent="1" source="ieJBfIBitrrJD2SXiwdM-2" target="ieJBfIBitrrJD2SXiwdM-4" edge="1">
          <mxGeometry relative="1" as="geometry">
            <mxPoint x="570" y="1380" as="sourcePoint" />
            <mxPoint x="632" y="1426" as="targetPoint" />
          </mxGeometry>
        </mxCell>
        <mxCell id="ieJBfIBitrrJD2SXiwdM-7" value="" style="endArrow=none;html=1;rounded=0;exitX=0.25;exitY=1;exitDx=0;exitDy=0;entryX=0.5;entryY=0;entryDx=0;entryDy=0;" parent="1" source="ieJBfIBitrrJD2SXiwdM-2" target="ieJBfIBitrrJD2SXiwdM-5" edge="1">
          <mxGeometry relative="1" as="geometry">
            <mxPoint x="640" y="1370" as="sourcePoint" />
            <mxPoint x="702" y="1416" as="targetPoint" />
          </mxGeometry>
        </mxCell>
        <mxCell id="ieJBfIBitrrJD2SXiwdM-8" value="sabor_desc" style="ellipse;whiteSpace=wrap;html=1;align=center;" parent="1" vertex="1">
          <mxGeometry x="540" y="1450" width="80" height="40" as="geometry" />
        </mxCell>
        <mxCell id="ieJBfIBitrrJD2SXiwdM-9" value="sabor" style="ellipse;whiteSpace=wrap;html=1;align=center;" parent="1" vertex="1">
          <mxGeometry x="460" y="1480" width="80" height="40" as="geometry" />
        </mxCell>
        <mxCell id="ieJBfIBitrrJD2SXiwdM-10" value="aroma" style="ellipse;whiteSpace=wrap;html=1;align=center;" parent="1" vertex="1">
          <mxGeometry x="510" y="1310" width="80" height="40" as="geometry" />
        </mxCell>
        <mxCell id="ieJBfIBitrrJD2SXiwdM-11" value="aroma_desc" style="ellipse;whiteSpace=wrap;html=1;align=center;" parent="1" vertex="1">
          <mxGeometry x="420" y="1300" width="80" height="40" as="geometry" />
        </mxCell>
        <mxCell id="ieJBfIBitrrJD2SXiwdM-12" value="color" style="ellipse;whiteSpace=wrap;html=1;align=center;" parent="1" vertex="1">
          <mxGeometry x="340" y="1330" width="80" height="40" as="geometry" />
        </mxCell>
        <mxCell id="LOEWXdQoFzKzdT3Kg7No-1" value="" style="endArrow=none;html=1;rounded=0;exitX=0.5;exitY=0;exitDx=0;exitDy=0;entryX=0.5;entryY=1;entryDx=0;entryDy=0;" parent="1" source="ieJBfIBitrrJD2SXiwdM-2" target="ieJBfIBitrrJD2SXiwdM-11" edge="1">
          <mxGeometry relative="1" as="geometry">
            <mxPoint x="490" y="1390" as="sourcePoint" />
            <mxPoint x="480" y="1350" as="targetPoint" />
          </mxGeometry>
        </mxCell>
        <mxCell id="LOEWXdQoFzKzdT3Kg7No-2" value="" style="endArrow=none;html=1;rounded=0;exitX=0.75;exitY=0;exitDx=0;exitDy=0;entryX=0;entryY=1;entryDx=0;entryDy=0;" parent="1" source="ieJBfIBitrrJD2SXiwdM-2" target="ieJBfIBitrrJD2SXiwdM-10" edge="1">
          <mxGeometry relative="1" as="geometry">
            <mxPoint x="490" y="1406" as="sourcePoint" />
            <mxPoint x="532" y="1370" as="targetPoint" />
          </mxGeometry>
        </mxCell>
        <mxCell id="LOEWXdQoFzKzdT3Kg7No-3" value="" style="endArrow=none;html=1;rounded=0;exitX=0;exitY=0;exitDx=0;exitDy=0;entryX=0.75;entryY=1;entryDx=0;entryDy=0;" parent="1" source="ieJBfIBitrrJD2SXiwdM-8" target="ieJBfIBitrrJD2SXiwdM-2" edge="1">
          <mxGeometry relative="1" as="geometry">
            <mxPoint x="510" y="1476" as="sourcePoint" />
            <mxPoint x="552" y="1440" as="targetPoint" />
          </mxGeometry>
        </mxCell>
        <mxCell id="LOEWXdQoFzKzdT3Kg7No-4" value="" style="endArrow=none;html=1;rounded=0;exitX=0.5;exitY=0;exitDx=0;exitDy=0;entryX=0.5;entryY=1;entryDx=0;entryDy=0;" parent="1" source="ieJBfIBitrrJD2SXiwdM-9" target="ieJBfIBitrrJD2SXiwdM-2" edge="1">
          <mxGeometry relative="1" as="geometry">
            <mxPoint x="490" y="1496" as="sourcePoint" />
            <mxPoint x="532" y="1460" as="targetPoint" />
          </mxGeometry>
        </mxCell>
        <mxCell id="LOEWXdQoFzKzdT3Kg7No-6" value="consistencia" style="ellipse;whiteSpace=wrap;html=1;align=center;" parent="1" vertex="1">
          <mxGeometry x="560" y="1350" width="80" height="40" as="geometry" />
        </mxCell>
        <mxCell id="LOEWXdQoFzKzdT3Kg7No-7" value="" style="endArrow=none;html=1;rounded=0;entryX=0;entryY=0.5;entryDx=0;entryDy=0;exitX=1;exitY=0.25;exitDx=0;exitDy=0;" parent="1" source="ieJBfIBitrrJD2SXiwdM-2" target="LOEWXdQoFzKzdT3Kg7No-6" edge="1">
          <mxGeometry relative="1" as="geometry">
            <mxPoint x="660" y="1410" as="sourcePoint" />
            <mxPoint x="512" y="1360" as="targetPoint" />
          </mxGeometry>
        </mxCell>
        <mxCell id="LOEWXdQoFzKzdT3Kg7No-8" value="consis_desc" style="ellipse;whiteSpace=wrap;html=1;align=center;" parent="1" vertex="1">
          <mxGeometry x="560" y="1400" width="80" height="40" as="geometry" />
        </mxCell>
        <mxCell id="LOEWXdQoFzKzdT3Kg7No-9" value="" style="endArrow=none;html=1;rounded=0;exitX=0;exitY=0.5;exitDx=0;exitDy=0;entryX=1;entryY=0.75;entryDx=0;entryDy=0;" parent="1" source="LOEWXdQoFzKzdT3Kg7No-8" target="ieJBfIBitrrJD2SXiwdM-2" edge="1">
          <mxGeometry relative="1" as="geometry">
            <mxPoint x="552" y="1516" as="sourcePoint" />
            <mxPoint x="520" y="1450" as="targetPoint" />
          </mxGeometry>
        </mxCell>
        <mxCell id="LOEWXdQoFzKzdT3Kg7No-14" value="nombre_cient" style="ellipse;whiteSpace=wrap;html=1;align=center;" parent="1" vertex="1">
          <mxGeometry x="940" y="720" width="80" height="40" as="geometry" />
        </mxCell>
        <mxCell id="LOEWXdQoFzKzdT3Kg7No-15" value="" style="endArrow=none;html=1;rounded=0;entryX=1;entryY=0.5;entryDx=0;entryDy=0;exitX=0;exitY=1;exitDx=0;exitDy=0;" parent="1" source="LOEWXdQoFzKzdT3Kg7No-14" target="2UJ9F-yyZZV8TtGCsO7B-1" edge="1">
          <mxGeometry relative="1" as="geometry">
            <mxPoint x="910" y="740" as="sourcePoint" />
            <mxPoint x="900" y="780" as="targetPoint" />
          </mxGeometry>
        </mxCell>
        <mxCell id="LOEWXdQoFzKzdT3Kg7No-17" value="id_muestra" style="ellipse;whiteSpace=wrap;html=1;align=center;" parent="1" vertex="1">
          <mxGeometry x="425" y="1100" width="80" height="40" as="geometry" />
        </mxCell>
        <mxCell id="LOEWXdQoFzKzdT3Kg7No-19" value="" style="endArrow=none;html=1;rounded=0;exitX=0;exitY=1;exitDx=0;exitDy=0;entryX=0.5;entryY=0;entryDx=0;entryDy=0;" parent="1" source="FHarEw_1w8gjIPrUUaQ0-23" target="IORpXrqYH4g0OpjPxt7b-27" edge="1">
          <mxGeometry relative="1" as="geometry">
            <mxPoint x="400" y="1070" as="sourcePoint" />
            <mxPoint x="380" y="1100" as="targetPoint" />
          </mxGeometry>
        </mxCell>
        <mxCell id="LOEWXdQoFzKzdT3Kg7No-20" value="" style="endArrow=none;html=1;rounded=0;exitX=1;exitY=1;exitDx=0;exitDy=0;entryX=0.5;entryY=0;entryDx=0;entryDy=0;" parent="1" source="FHarEw_1w8gjIPrUUaQ0-23" target="LOEWXdQoFzKzdT3Kg7No-17" edge="1">
          <mxGeometry relative="1" as="geometry">
            <mxPoint x="470" y="1070" as="sourcePoint" />
            <mxPoint x="450" y="1100" as="targetPoint" />
          </mxGeometry>
        </mxCell>
        <mxCell id="IORpXrqYH4g0OpjPxt7b-1" value="tabla" style="shape=table;startSize=30;container=1;collapsible=1;childLayout=tableLayout;fixedRows=1;rowLines=0;fontStyle=1;align=center;resizeLast=1;" parent="1" vertex="1">
          <mxGeometry x="760" y="-240" width="250" height="130" as="geometry" />
        </mxCell>
        <mxCell id="IORpXrqYH4g0OpjPxt7b-2" value="" style="shape=partialRectangle;collapsible=0;dropTarget=0;pointerEvents=0;fillColor=none;points=[[0,0.5],[1,0.5]];portConstraint=eastwest;top=0;left=0;right=0;bottom=1;" parent="IORpXrqYH4g0OpjPxt7b-1" vertex="1">
          <mxGeometry y="30" width="250" height="30" as="geometry" />
        </mxCell>
        <mxCell id="IORpXrqYH4g0OpjPxt7b-3" value="PK" style="shape=partialRectangle;overflow=hidden;connectable=0;fillColor=none;top=0;left=0;bottom=0;right=0;fontStyle=1;" parent="IORpXrqYH4g0OpjPxt7b-2" vertex="1">
          <mxGeometry width="30" height="30" as="geometry">
            <mxRectangle width="30" height="30" as="alternateBounds" />
          </mxGeometry>
        </mxCell>
        <mxCell id="IORpXrqYH4g0OpjPxt7b-4" value="shipment_id int NOT NULL " style="shape=partialRectangle;overflow=hidden;connectable=0;fillColor=none;top=0;left=0;bottom=0;right=0;align=left;spacingLeft=6;fontStyle=5;" parent="IORpXrqYH4g0OpjPxt7b-2" vertex="1">
          <mxGeometry x="30" width="220" height="30" as="geometry">
            <mxRectangle width="220" height="30" as="alternateBounds" />
          </mxGeometry>
        </mxCell>
        <mxCell id="IORpXrqYH4g0OpjPxt7b-5" value="" style="shape=partialRectangle;collapsible=0;dropTarget=0;pointerEvents=0;fillColor=none;points=[[0,0.5],[1,0.5]];portConstraint=eastwest;top=0;left=0;right=0;bottom=0;" parent="IORpXrqYH4g0OpjPxt7b-1" vertex="1">
          <mxGeometry y="60" width="250" height="30" as="geometry" />
        </mxCell>
        <mxCell id="IORpXrqYH4g0OpjPxt7b-6" value="FK1" style="shape=partialRectangle;overflow=hidden;connectable=0;fillColor=none;top=0;left=0;bottom=0;right=0;" parent="IORpXrqYH4g0OpjPxt7b-5" vertex="1">
          <mxGeometry width="30" height="30" as="geometry">
            <mxRectangle width="30" height="30" as="alternateBounds" />
          </mxGeometry>
        </mxCell>
        <mxCell id="IORpXrqYH4g0OpjPxt7b-7" value="order_id int NOT NULL" style="shape=partialRectangle;overflow=hidden;connectable=0;fillColor=none;top=0;left=0;bottom=0;right=0;align=left;spacingLeft=6;" parent="IORpXrqYH4g0OpjPxt7b-5" vertex="1">
          <mxGeometry x="30" width="220" height="30" as="geometry">
            <mxRectangle width="220" height="30" as="alternateBounds" />
          </mxGeometry>
        </mxCell>
        <mxCell id="IORpXrqYH4g0OpjPxt7b-8" value="" style="shape=partialRectangle;collapsible=0;dropTarget=0;pointerEvents=0;fillColor=none;points=[[0,0.5],[1,0.5]];portConstraint=eastwest;top=0;left=0;right=0;bottom=0;" parent="IORpXrqYH4g0OpjPxt7b-1" vertex="1">
          <mxGeometry y="90" width="250" height="30" as="geometry" />
        </mxCell>
        <mxCell id="IORpXrqYH4g0OpjPxt7b-9" value="" style="shape=partialRectangle;overflow=hidden;connectable=0;fillColor=none;top=0;left=0;bottom=0;right=0;" parent="IORpXrqYH4g0OpjPxt7b-8" vertex="1">
          <mxGeometry width="30" height="30" as="geometry">
            <mxRectangle width="30" height="30" as="alternateBounds" />
          </mxGeometry>
        </mxCell>
        <mxCell id="IORpXrqYH4g0OpjPxt7b-10" value="shipment_date date NOT NULL" style="shape=partialRectangle;overflow=hidden;connectable=0;fillColor=none;top=0;left=0;bottom=0;right=0;align=left;spacingLeft=6;" parent="IORpXrqYH4g0OpjPxt7b-8" vertex="1">
          <mxGeometry x="30" width="220" height="30" as="geometry">
            <mxRectangle width="220" height="30" as="alternateBounds" />
          </mxGeometry>
        </mxCell>
        <mxCell id="IORpXrqYH4g0OpjPxt7b-13" value="id_tambor" style="ellipse;whiteSpace=wrap;html=1;align=center;fontStyle=4;" parent="1" vertex="1">
          <mxGeometry x="-10" y="1080" width="80" height="40" as="geometry" />
        </mxCell>
        <mxCell id="IORpXrqYH4g0OpjPxt7b-15" value="localidad" style="ellipse;whiteSpace=wrap;html=1;align=center;" parent="1" vertex="1">
          <mxGeometry x="195" y="780" width="80" height="40" as="geometry" />
        </mxCell>
        <mxCell id="IORpXrqYH4g0OpjPxt7b-16" value="" style="endArrow=none;html=1;rounded=0;entryX=1;entryY=0.75;entryDx=0;entryDy=0;exitX=0;exitY=0;exitDx=0;exitDy=0;" parent="1" source="IORpXrqYH4g0OpjPxt7b-15" target="FHarEw_1w8gjIPrUUaQ0-66" edge="1">
          <mxGeometry relative="1" as="geometry">
            <mxPoint x="222" y="730" as="sourcePoint" />
            <mxPoint x="175" y="756" as="targetPoint" />
          </mxGeometry>
        </mxCell>
        <mxCell id="IORpXrqYH4g0OpjPxt7b-18" value="id" style="ellipse;whiteSpace=wrap;html=1;align=center;fontStyle=4;" parent="1" vertex="1">
          <mxGeometry x="-30" y="920" width="80" height="40" as="geometry" />
        </mxCell>
        <mxCell id="IORpXrqYH4g0OpjPxt7b-19" value="id_api" style="ellipse;whiteSpace=wrap;html=1;align=center;" parent="1" vertex="1">
          <mxGeometry x="180" y="890" width="80" height="40" as="geometry" />
        </mxCell>
        <mxCell id="IORpXrqYH4g0OpjPxt7b-20" value="" style="endArrow=none;html=1;rounded=0;entryX=1;entryY=0.5;entryDx=0;entryDy=0;exitX=0;exitY=0.5;exitDx=0;exitDy=0;" parent="1" source="FHarEw_1w8gjIPrUUaQ0-74" target="IORpXrqYH4g0OpjPxt7b-18" edge="1">
          <mxGeometry relative="1" as="geometry">
            <mxPoint x="82" y="1090" as="sourcePoint" />
            <mxPoint x="70" y="1116" as="targetPoint" />
          </mxGeometry>
        </mxCell>
        <mxCell id="IORpXrqYH4g0OpjPxt7b-21" value="" style="endArrow=none;html=1;rounded=0;entryX=1;entryY=0;entryDx=0;entryDy=0;exitX=0;exitY=0.5;exitDx=0;exitDy=0;" parent="1" source="IORpXrqYH4g0OpjPxt7b-19" target="FHarEw_1w8gjIPrUUaQ0-74" edge="1">
          <mxGeometry relative="1" as="geometry">
            <mxPoint x="185" y="960" as="sourcePoint" />
            <mxPoint x="155" y="960" as="targetPoint" />
          </mxGeometry>
        </mxCell>
        <mxCell id="IORpXrqYH4g0OpjPxt7b-23" style="edgeStyle=orthogonalEdgeStyle;rounded=0;orthogonalLoop=1;jettySize=auto;html=1;entryX=0;entryY=0.5;entryDx=0;entryDy=0;startArrow=ERone;startFill=0;endArrow=ERmany;endFill=0;" parent="1" source="IORpXrqYH4g0OpjPxt7b-22" target="FHarEw_1w8gjIPrUUaQ0-66" edge="1">
          <mxGeometry relative="1" as="geometry" />
        </mxCell>
        <mxCell id="IORpXrqYH4g0OpjPxt7b-22" value="propietario" style="whiteSpace=wrap;html=1;align=center;" parent="1" vertex="1">
          <mxGeometry x="-240" y="740" width="80" height="40" as="geometry" />
        </mxCell>
        <mxCell id="IORpXrqYH4g0OpjPxt7b-24" value="id_tambor" style="ellipse;whiteSpace=wrap;html=1;align=center;" parent="1" vertex="1">
          <mxGeometry x="180" y="940" width="80" height="40" as="geometry" />
        </mxCell>
        <mxCell id="IORpXrqYH4g0OpjPxt7b-25" value="" style="endArrow=none;html=1;rounded=0;entryX=1;entryY=1;entryDx=0;entryDy=0;exitX=0;exitY=0.5;exitDx=0;exitDy=0;" parent="1" source="IORpXrqYH4g0OpjPxt7b-24" target="FHarEw_1w8gjIPrUUaQ0-74" edge="1">
          <mxGeometry relative="1" as="geometry">
            <mxPoint x="190" y="920" as="sourcePoint" />
            <mxPoint x="170" y="950" as="targetPoint" />
          </mxGeometry>
        </mxCell>
        <mxCell id="IORpXrqYH4g0OpjPxt7b-26" value="id_muta" style="ellipse;whiteSpace=wrap;html=1;align=center;fontStyle=4;" parent="1" vertex="1">
          <mxGeometry x="380" y="980" width="80" height="40" as="geometry" />
        </mxCell>
        <mxCell id="IORpXrqYH4g0OpjPxt7b-27" value="id_tambor" style="ellipse;whiteSpace=wrap;html=1;align=center;" parent="1" vertex="1">
          <mxGeometry x="340" y="1100" width="80" height="40" as="geometry" />
        </mxCell>
        <mxCell id="IORpXrqYH4g0OpjPxt7b-30" value="tiene_a" style="shape=rhombus;perimeter=rhombusPerimeter;whiteSpace=wrap;html=1;align=center;" parent="1" vertex="1">
          <mxGeometry x="-70" y="740" width="80" height="40" as="geometry" />
        </mxCell>
        <mxCell id="IORpXrqYH4g0OpjPxt7b-31" value="id_propietario" style="ellipse;whiteSpace=wrap;html=1;align=center;fontStyle=4;" parent="1" vertex="1">
          <mxGeometry x="-290" y="660" width="80" height="40" as="geometry" />
        </mxCell>
        <mxCell id="IORpXrqYH4g0OpjPxt7b-32" value="apellido" style="ellipse;whiteSpace=wrap;html=1;align=center;" parent="1" vertex="1">
          <mxGeometry x="-190" y="660" width="80" height="40" as="geometry" />
        </mxCell>
        <mxCell id="IORpXrqYH4g0OpjPxt7b-33" value="" style="endArrow=none;html=1;rounded=0;entryX=0.25;entryY=0;entryDx=0;entryDy=0;exitX=0.5;exitY=1;exitDx=0;exitDy=0;" parent="1" source="IORpXrqYH4g0OpjPxt7b-31" target="IORpXrqYH4g0OpjPxt7b-22" edge="1">
          <mxGeometry relative="1" as="geometry">
            <mxPoint x="-290" y="725" as="sourcePoint" />
            <mxPoint x="-270" y="755" as="targetPoint" />
          </mxGeometry>
        </mxCell>
        <mxCell id="IORpXrqYH4g0OpjPxt7b-34" value="" style="endArrow=none;html=1;rounded=0;entryX=0.75;entryY=0;entryDx=0;entryDy=0;exitX=0.5;exitY=1;exitDx=0;exitDy=0;" parent="1" source="IORpXrqYH4g0OpjPxt7b-32" target="IORpXrqYH4g0OpjPxt7b-22" edge="1">
          <mxGeometry relative="1" as="geometry">
            <mxPoint x="-190" y="710" as="sourcePoint" />
            <mxPoint x="-170" y="740" as="targetPoint" />
          </mxGeometry>
        </mxCell>
        <mxCell id="IORpXrqYH4g0OpjPxt7b-35" value="marc_especial" style="ellipse;whiteSpace=wrap;html=1;align=center;" parent="1" vertex="1">
          <mxGeometry x="750" y="920" width="80" height="40" as="geometry" />
        </mxCell>
        <mxCell id="IORpXrqYH4g0OpjPxt7b-36" value="" style="endArrow=none;html=1;rounded=0;entryX=0;entryY=1;entryDx=0;entryDy=0;exitX=1;exitY=0.5;exitDx=0;exitDy=0;" parent="1" source="IORpXrqYH4g0OpjPxt7b-35" target="FHarEw_1w8gjIPrUUaQ0-98" edge="1">
          <mxGeometry relative="1" as="geometry">
            <mxPoint x="830" y="860" as="sourcePoint" />
            <mxPoint x="892" y="876" as="targetPoint" />
          </mxGeometry>
        </mxCell>
        <mxCell id="ut1FgxLM1IVdskiY2yRH-1" value="id_muestra" style="ellipse;whiteSpace=wrap;html=1;align=center;" parent="1" vertex="1">
          <mxGeometry x="930" y="940" width="80" height="40" as="geometry" />
        </mxCell>
        <mxCell id="ut1FgxLM1IVdskiY2yRH-3" value="" style="endArrow=none;html=1;rounded=0;exitX=0;exitY=0.5;exitDx=0;exitDy=0;entryX=1;entryY=1;entryDx=0;entryDy=0;" parent="1" source="ut1FgxLM1IVdskiY2yRH-1" target="FHarEw_1w8gjIPrUUaQ0-98" edge="1">
          <mxGeometry relative="1" as="geometry">
            <mxPoint x="900" y="1099" as="sourcePoint" />
            <mxPoint x="936" y="1070" as="targetPoint" />
          </mxGeometry>
        </mxCell>
        <mxCell id="ut1FgxLM1IVdskiY2yRH-4" value="especialista" style="whiteSpace=wrap;html=1;align=center;" parent="1" vertex="1">
          <mxGeometry x="840" y="1080" width="80" height="40" as="geometry" />
        </mxCell>
        <mxCell id="ut1FgxLM1IVdskiY2yRH-6" value="id_especia" style="ellipse;whiteSpace=wrap;html=1;align=center;" parent="1" vertex="1">
          <mxGeometry x="470" y="790" width="80" height="40" as="geometry" />
        </mxCell>
        <mxCell id="ut1FgxLM1IVdskiY2yRH-7" value="tomo_muest" style="shape=rhombus;perimeter=rhombusPerimeter;whiteSpace=wrap;html=1;align=center;" parent="1" vertex="1">
          <mxGeometry x="640" y="1080" width="80" height="40" as="geometry" />
        </mxCell>
        <mxCell id="ut1FgxLM1IVdskiY2yRH-8" value="&lt;u&gt;id_especia&lt;/u&gt;" style="ellipse;whiteSpace=wrap;html=1;align=center;" parent="1" vertex="1">
          <mxGeometry x="840" y="1160" width="80" height="40" as="geometry" />
        </mxCell>
        <mxCell id="ut1FgxLM1IVdskiY2yRH-9" value="nombres" style="ellipse;whiteSpace=wrap;html=1;align=center;" parent="1" vertex="1">
          <mxGeometry x="930" y="1140" width="80" height="40" as="geometry" />
        </mxCell>
        <mxCell id="ut1FgxLM1IVdskiY2yRH-10" value="apellidos" style="ellipse;whiteSpace=wrap;html=1;align=center;" parent="1" vertex="1">
          <mxGeometry x="950" y="1080" width="80" height="40" as="geometry" />
        </mxCell>
        <mxCell id="ut1FgxLM1IVdskiY2yRH-11" value="contacto" style="ellipse;whiteSpace=wrap;html=1;align=center;" parent="1" vertex="1">
          <mxGeometry x="930" y="1030" width="80" height="40" as="geometry" />
        </mxCell>
        <mxCell id="ut1FgxLM1IVdskiY2yRH-12" value="" style="endArrow=none;html=1;rounded=0;exitX=0.5;exitY=0;exitDx=0;exitDy=0;entryX=0.25;entryY=1;entryDx=0;entryDy=0;" parent="1" source="ut1FgxLM1IVdskiY2yRH-8" target="ut1FgxLM1IVdskiY2yRH-4" edge="1">
          <mxGeometry relative="1" as="geometry">
            <mxPoint x="840" y="1160" as="sourcePoint" />
            <mxPoint x="810" y="1130" as="targetPoint" />
          </mxGeometry>
        </mxCell>
        <mxCell id="ut1FgxLM1IVdskiY2yRH-13" value="" style="endArrow=none;html=1;rounded=0;exitX=0.75;exitY=0;exitDx=0;exitDy=0;entryX=0;entryY=0.5;entryDx=0;entryDy=0;" parent="1" source="ut1FgxLM1IVdskiY2yRH-4" target="ut1FgxLM1IVdskiY2yRH-11" edge="1">
          <mxGeometry relative="1" as="geometry">
            <mxPoint x="900" y="1060" as="sourcePoint" />
            <mxPoint x="870" y="1030" as="targetPoint" />
          </mxGeometry>
        </mxCell>
        <mxCell id="ut1FgxLM1IVdskiY2yRH-14" value="" style="endArrow=none;html=1;rounded=0;exitX=0;exitY=0.5;exitDx=0;exitDy=0;entryX=1;entryY=0.5;entryDx=0;entryDy=0;" parent="1" source="ut1FgxLM1IVdskiY2yRH-10" target="ut1FgxLM1IVdskiY2yRH-4" edge="1">
          <mxGeometry relative="1" as="geometry">
            <mxPoint x="930" y="1080" as="sourcePoint" />
            <mxPoint x="900" y="1050" as="targetPoint" />
          </mxGeometry>
        </mxCell>
        <mxCell id="ut1FgxLM1IVdskiY2yRH-15" value="" style="endArrow=none;html=1;rounded=0;exitX=0;exitY=0;exitDx=0;exitDy=0;entryX=0.75;entryY=1;entryDx=0;entryDy=0;" parent="1" source="ut1FgxLM1IVdskiY2yRH-9" target="ut1FgxLM1IVdskiY2yRH-4" edge="1">
          <mxGeometry relative="1" as="geometry">
            <mxPoint x="930" y="1160" as="sourcePoint" />
            <mxPoint x="900" y="1130" as="targetPoint" />
          </mxGeometry>
        </mxCell>
      </root>
    </mxGraphModel>
  </diagram>
</mxfile>
